<?xml version="1.0" standalone="no"?>
<!DOCTYPE svg PUBLIC "-//W3C//DTD SVG 20010904//EN"
 "http://www.w3.org/TR/2001/REC-SVG-20010904/DTD/svg10.dtd">
<svg version="1.0" xmlns="http://www.w3.org/2000/svg"
 width="512.000000pt" height="512.000000pt" viewBox="0 0 512.000000 512.000000"
 preserveAspectRatio="xMidYMid meet">
<metadata>
Created by potrace 1.14, written by Peter Selinger 2001-2017
</metadata>
<g transform="translate(0.000000,512.000000) scale(0.100000,-0.100000)"
fill="#000000" stroke="none">
<path d="M650 3839 c-157 -15 -367 -36 -468 -46 l-182 -18 499 -801 500 -801
343 -72 c189 -40 373 -80 409 -88 63 -14 81 -26 400 -267 l334 -252 17 -60 c9
-32 24 -85 33 -117 9 -32 19 -57 21 -54 3 2 18 53 34 112 15 59 33 111 38 114
5 3 160 119 343 258 l334 252 405 86 c223 47 408 89 412 93 3 4 230 365 502
802 283 453 491 796 484 797 -7 1 -85 9 -173 17 -88 9 -299 29 -470 46 -170
16 -319 30 -330 30 -12 0 -108 -79 -229 -186 l-210 -186 -80 6 c-45 3 -205 6
-356 7 l-275 1 -34 -171 -34 -171 -357 0 -357 0 -34 171 -34 172 -260 -2
c-143 -1 -303 -4 -355 -7 l-96 -7 -209 186 c-190 169 -213 186 -245 186 -19
-1 -163 -14 -320 -30z m2025 -860 l80 -79 -97 0 -98 0 0 90 c0 107 -5 108 115
-11z"/>
</g>
</svg>
